<svg version="1.1" xmlns="http://www.w3.org/2000/svg" xmlns:xlink="http://www.w3.org/1999/xlink" width="1181" height="1978"><defs/><g><g/><g/><g/><g/><g/><g/><g/><g/><g/><g/><g/><g/><g/><g/><g/><g/><g/><g/><g/><g/><g/><g/><g/><g/><g/><g/><g/><g/><g/><g/><g/><g/><g/><g/><g/><g/><g/><g/><g/><g/><g/><g><rect fill="white" stroke="none" x="0" y="0" width="1181" height="1978"/></g><g/><g><path fill="none" stroke="blue" paint-order="fill stroke markers" d=" M 63.39129723050001 55.049635120999994 L 63.39129723050001 1978.3512016286331" stroke-miterlimit="10" stroke-width="1.3612669416666667" stroke-dasharray="12.565541,5.445067766666667"/><path fill="none" stroke="red" paint-order="fill stroke markers" d=" M 584.9518393638333 55.049635120999994 L 584.9518393638333 1978.3512016286331" stroke-miterlimit="10" stroke-width="1.3612669416666667" stroke-dasharray="12.565541,5.445067766666667"/><path fill="none" stroke="blue" paint-order="fill stroke markers" d=" M 1106.5123814971666 55.049635120999994 L 1106.5123814971666 1978.3512016286331" stroke-miterlimit="10" stroke-width="1.3612669416666667" stroke-dasharray="12.565541,5.445067766666667"/></g><g><path fill="none" stroke="none"/><g><path fill="white" stroke="black" paint-order="fill stroke markers" d=" M 8.167601650000002 11.107938244000005 L 118.61499281100001 11.107938244000005 L 118.61499281100001 55.049635120999994 L 8.167601650000002 55.049635120999994 L 8.167601650000002 11.107938244000005 Z" stroke-miterlimit="10" stroke-width="2.613632528" stroke-dasharray=""/></g><g><text fill="black" stroke="none" font-family="&quot;Open Sans&quot;, sans-serif" font-size="11pt" font-style="normal" font-weight="normal" text-decoration="normal" x="25.891297230500008" y="38.71443182099999" text-anchor="start" dominant-baseline="alphabetic" xml:space="preserve">Singe client</text></g><path fill="none" stroke="none"/><g><path fill="white" stroke="black" paint-order="fill stroke markers" d=" M 545.7281437833333 11.107938244000005 L 624.1755349443333 11.107938244000005 L 624.1755349443333 55.049635120999994 L 545.7281437833333 55.049635120999994 L 545.7281437833333 11.107938244000005 Z" stroke-miterlimit="10" stroke-width="2.613632528" stroke-dasharray=""/></g><g><text fill="black" stroke="none" font-family="&quot;Open Sans&quot;, sans-serif" font-size="11pt" font-style="normal" font-weight="normal" text-decoration="normal" x="563.4518393638333" y="38.71443182099999" text-anchor="start" dominant-baseline="alphabetic" xml:space="preserve">Server</text></g><path fill="none" stroke="none"/><g><path fill="white" stroke="black" paint-order="fill stroke markers" d=" M 1039.7886859166667 11.107938244000005 L 1173.2360770776668 11.107938244000005 L 1173.2360770776668 55.049635120999994 L 1039.7886859166667 55.049635120999994 L 1039.7886859166667 11.107938244000005 Z" stroke-miterlimit="10" stroke-width="2.613632528" stroke-dasharray=""/></g><g><text fill="black" stroke="none" font-family="&quot;Open Sans&quot;, sans-serif" font-size="11pt" font-style="normal" font-weight="normal" text-decoration="normal" x="1057.5123814971666" y="38.71443182099999" text-anchor="start" dominant-baseline="alphabetic" xml:space="preserve">Clients in room</text></g></g><g><g><g><rect fill="white" stroke="none" x="268.22128780216667" y="75.46863924600001" width="111.90056099" height="21.23576429"/></g><text fill="black" stroke="none" font-family="&quot;Open Sans&quot;, sans-serif" font-size="11pt" font-style="normal" font-weight="normal" text-decoration="normal" x="270.6715682971667" y="90.17032221600002" text-anchor="start" dominant-baseline="alphabetic" xml:space="preserve">&lt;&lt;connection&gt;&gt;</text></g><g><path fill="none" stroke="grey" paint-order="fill stroke markers" d=" M 63.39129723050001 96.704403536 L 582.2293054805 96.704403536" stroke-miterlimit="10" stroke-width="1.3612669416666667" stroke-dasharray=""/><g transform="translate(584.9518393638333,96.704403536) translate(-584.9518393638333,-96.704403536)"><path fill="none" stroke="grey" paint-order="fill stroke markers" d=" M 571.3391699471666 89.89806882766666 L 583.5905724221666 96.704403536 L 571.3391699471666 103.51073824433334" stroke-miterlimit="10" stroke-width="1.3612669416666667"/></g></g><g><g><rect fill="white" stroke="none" x="271.72128780216667" y="108.955806011" width="104.90056099" height="21.23576429"/></g><text fill="black" stroke="none" font-family="&quot;Open Sans&quot;, sans-serif" font-size="11pt" font-style="normal" font-weight="normal" text-decoration="normal" x="274.1715682971667" y="123.65748898100001" text-anchor="start" dominant-baseline="alphabetic" xml:space="preserve">games(games)</text></g><g><path fill="none" stroke="black" paint-order="fill stroke markers" d=" M 584.9518393638333 123.58996166431196 L 66.11383111383334 139.83989558351587" stroke-miterlimit="10" stroke-width="1.3612669416666667" stroke-dasharray=""/><g transform="translate(63.39129723050001,139.92516496431196) rotate(-1.7939093928577634,0,0) translate(-63.39129723050001,-139.92516496431196)"><path fill="black" stroke="none" paint-order="stroke fill markers" d=" M 77.00396664716668 133.11883025597862 L 63.39129723050001 139.92516496431196 L 77.00396664716668 146.7314996726453 Z"/><g transform="rotate(1.7939093928577634,0,0)"/></g></g><path fill="white" stroke="black" paint-order="fill stroke markers" d=" M 48.68961426050001 180.76317321431196 L 1121.2140644671667 180.76317321431196 L 1121.2140644671667 218.33414080431197 L 48.68961426050001 218.33414080431197 L 48.68961426050001 180.76317321431196" stroke-miterlimit="10" stroke-width="1.3612669416666667" stroke-dasharray=""/><g><text fill="black" stroke="none" font-family="&quot;Open Sans&quot;, sans-serif" font-size="11pt" font-style="normal" font-weight="normal" text-decoration="normal" x="549.9518393638333" y="203.63245783431194" text-anchor="start" dominant-baseline="alphabetic" xml:space="preserve">Join Game</text></g><g><g><rect fill="white" stroke="none" x="253.7212878021667" y="230.58554327931196" width="140.90056099" height="21.23576429"/></g><text fill="black" stroke="none" font-family="&quot;Open Sans&quot;, sans-serif" font-size="11pt" font-style="normal" font-weight="normal" text-decoration="normal" x="256.1715682971667" y="245.28722624931194" text-anchor="start" dominant-baseline="alphabetic" xml:space="preserve">join(gameId, pseudo)</text></g><g><path fill="none" stroke="black" paint-order="fill stroke markers" d=" M 63.39129723050001 245.78345641741623 L 582.2293054805 262.03339033662013" stroke-miterlimit="10" stroke-width="1.3612669416666667" stroke-dasharray=""/><g transform="translate(584.9518393638333,262.1186597174162) rotate(1.7939093928577634,0,0) translate(-584.9518393638333,-262.1186597174162)"><path fill="black" stroke="none" paint-order="stroke fill markers" d=" M 571.3391699471666 255.31232500908288 L 584.9518393638333 262.1186597174162 L 571.3391699471666 268.92499442574956 Z"/><g transform="rotate(-1.7939093928577634,0,0)"/></g></g><g><g><rect fill="white" stroke="none" x="185.2212878021667" y="274.37006219241624" width="277.90056099" height="21.23576429"/></g><text fill="black" stroke="none" font-family="&quot;Open Sans&quot;, sans-serif" font-size="11pt" font-style="normal" font-weight="normal" text-decoration="normal" x="187.6715682971667" y="289.0717451624162" text-anchor="start" dominant-baseline="alphabetic" xml:space="preserve">joined(localPlayerId, players, isSpectating)</text></g><g><path fill="none" stroke="black" paint-order="fill stroke markers" d=" M 584.9518393638333 291.7133857587579 L 66.11383111383334 307.9633196779618" stroke-miterlimit="10" stroke-width="1.3612669416666667" stroke-dasharray=""/><g transform="translate(63.39129723050001,308.0485890587579) rotate(-1.7939093928577634,0,0) translate(-63.39129723050001,-308.0485890587579)"><path fill="black" stroke="none" paint-order="stroke fill markers" d=" M 77.00396664716668 301.24225435042456 L 63.39129723050001 308.0485890587579 L 77.00396664716668 314.85492376709124 Z"/><g transform="rotate(1.7939093928577634,0,0)"/></g></g><g><g><rect fill="white" stroke="none" x="776.2818299354999" y="320.29999153375786" width="138.90056099" height="21.23576429"/></g><text fill="black" stroke="none" font-family="&quot;Open Sans&quot;, sans-serif" font-size="11pt" font-style="normal" font-weight="normal" text-decoration="normal" x="778.7321104304999" y="335.00167450375784" text-anchor="start" dominant-baseline="alphabetic" xml:space="preserve">player_joined(player)</text></g><g><path fill="none" stroke="black" paint-order="fill stroke markers" d=" M 584.9518393638333 335.4665848115959 L 1103.7898476138332 351.7165187307998" stroke-miterlimit="10" stroke-width="1.3612669416666667" stroke-dasharray=""/><g transform="translate(1106.5123814971666,351.8017881115959) rotate(1.7939093928577634,0,0) translate(-1106.5123814971666,-351.8017881115959)"><path fill="black" stroke="none" paint-order="stroke fill markers" d=" M 1092.8997120805 344.99545340326256 L 1106.5123814971666 351.8017881115959 L 1092.8997120805 358.60812281992924 Z"/><g transform="rotate(-1.7939093928577634,0,0)"/></g></g><path fill="white" stroke="black" paint-order="fill stroke markers" d=" M 505.0825547438333 364.05319058659586 L 650.1194410138334 364.05319058659586 L 664.8211239838333 378.75487355659584 L 664.8211239838333 401.62415817659587 L 505.0825547438333 401.62415817659587 L 505.0825547438333 364.05319058659586 M 650.1194410138334 364.05319058659586 L 650.1194410138334 378.75487355659584 L 664.8211239838333 378.75487355659584" stroke-miterlimit="10" stroke-width="1.3612669416666667" stroke-dasharray=""/><g><text fill="black" stroke="none" font-family="&quot;Open Sans&quot;, sans-serif" font-size="11pt" font-style="normal" font-weight="normal" text-decoration="normal" x="527.9518393638333" y="386.92247520659583" text-anchor="start" dominant-baseline="alphabetic" xml:space="preserve">If already in game</text></g><g><g><rect fill="white" stroke="none" x="82.72128780216669" y="413.8755606515959" width="482.90056099" height="21.23576429"/></g><text fill="black" stroke="none" font-family="&quot;Open Sans&quot;, sans-serif" font-size="11pt" font-style="normal" font-weight="normal" text-decoration="normal" x="85.17156829716669" y="428.57724362159587" text-anchor="start" dominant-baseline="alphabetic" xml:space="preserve">game_state(gameState, countdown, blackCardText, pickedCards, winner)</text></g><g><path fill="none" stroke="black" paint-order="fill stroke markers" d=" M 584.9518393638333 434.42916989522706 L 66.11383111383334 450.67910381443096" stroke-miterlimit="10" stroke-width="1.3612669416666667" stroke-dasharray=""/><g transform="translate(63.39129723050001,450.76437319522705) rotate(-1.7939093928577634,0,0) translate(-63.39129723050001,-450.76437319522705)"><path fill="black" stroke="none" paint-order="stroke fill markers" d=" M 77.00396664716668 443.9580384868937 L 63.39129723050001 450.76437319522705 L 77.00396664716668 457.5707079035604 Z"/><g transform="rotate(1.7939093928577634,0,0)"/></g></g><path fill="white" stroke="black" paint-order="fill stroke markers" d=" M 48.68961426050001 491.602381445227 L 1121.2140644671667 491.602381445227 L 1121.2140644671667 529.173349035227 L 48.68961426050001 529.173349035227 L 48.68961426050001 491.602381445227" stroke-miterlimit="10" stroke-width="1.3612669416666667" stroke-dasharray=""/><g><text fill="black" stroke="none" font-family="&quot;Open Sans&quot;, sans-serif" font-size="11pt" font-style="normal" font-weight="normal" text-decoration="normal" x="536.9518393638333" y="514.471666065227" text-anchor="start" dominant-baseline="alphabetic" xml:space="preserve">Chat message</text></g><g><g><rect fill="white" stroke="none" x="240.2212878021667" y="541.424751510227" width="167.90056099" height="21.23576429"/></g><text fill="black" stroke="none" font-family="&quot;Open Sans&quot;, sans-serif" font-size="11pt" font-style="normal" font-weight="normal" text-decoration="normal" x="242.6715682971667" y="556.126434480227" text-anchor="start" dominant-baseline="alphabetic" xml:space="preserve">message(message, ack)</text></g><g><path fill="none" stroke="black" paint-order="fill stroke markers" d=" M 63.39129723050001 557.0454827619255 L 582.2293054805 573.2954166811294" stroke-miterlimit="10" stroke-width="1.3612669416666667" stroke-dasharray=""/><g transform="translate(584.9518393638333,573.3806860619255) rotate(1.7939093928577634,0,0) translate(-584.9518393638333,-573.3806860619255)"><path fill="black" stroke="none" paint-order="stroke fill markers" d=" M 571.3391699471666 566.5743513535922 L 584.9518393638333 573.3806860619255 L 571.3391699471666 580.1870207702589 Z"/><g transform="rotate(-1.7939093928577634,0,0)"/></g></g><g><g><rect fill="white" stroke="none" x="777.2818299354999" y="585.6320885369255" width="136.90056099" height="21.23576429"/></g><text fill="black" stroke="none" font-family="&quot;Open Sans&quot;, sans-serif" font-size="11pt" font-style="normal" font-weight="normal" text-decoration="normal" x="779.7321104304999" y="600.3337715069255" text-anchor="start" dominant-baseline="alphabetic" xml:space="preserve">message(message)</text></g><g><path fill="none" stroke="black" paint-order="fill stroke markers" d=" M 584.9518393638333 600.7673619544973 L 1103.7898476138332 617.0172958737012" stroke-miterlimit="10" stroke-width="1.3612669416666667" stroke-dasharray=""/><g transform="translate(1106.5123814971666,617.1025652544973) rotate(1.7939093928577634,0,0) translate(-1106.5123814971666,-617.1025652544973)"><path fill="black" stroke="none" paint-order="stroke fill markers" d=" M 1092.8997120805 610.296230546164 L 1106.5123814971666 617.1025652544973 L 1092.8997120805 623.9088999628307 Z"/><g transform="rotate(-1.7939093928577634,0,0)"/></g></g><g><g><rect fill="white" stroke="none" x="305.22128780216667" y="608.9349636044973" width="37.90056099" height="21.23576429"/></g><text fill="black" stroke="none" font-family="&quot;Open Sans&quot;, sans-serif" font-size="11pt" font-style="normal" font-weight="normal" text-decoration="normal" x="307.6715682971667" y="623.6366465744973" text-anchor="start" dominant-baseline="alphabetic" xml:space="preserve">ack()</text></g><g><path fill="none" stroke="black" paint-order="fill stroke markers" d=" M 584.9518393638333 622.5199039388903 L 66.11383111383334 638.7698378580941" stroke-miterlimit="10" stroke-width="1.3612669416666667" stroke-dasharray="6.53408132"/><g transform="translate(63.39129723050001,638.8551072388902) rotate(-1.7939093928577634,0,0) translate(-63.39129723050001,-638.8551072388902)"><path fill="black" stroke="none" paint-order="stroke fill markers" d=" M 77.00396664716668 632.0487725305569 L 63.39129723050001 638.8551072388902 L 77.00396664716668 645.6614419472236 Z"/><g transform="rotate(1.7939093928577634,0,0)"/></g></g><path fill="white" stroke="black" paint-order="fill stroke markers" d=" M 48.68961426050001 679.6931154888902 L 1121.2140644671667 679.6931154888902 L 1121.2140644671667 717.2640830788902 L 48.68961426050001 717.2640830788902 L 48.68961426050001 679.6931154888902" stroke-miterlimit="10" stroke-width="1.3612669416666667" stroke-dasharray=""/><g><text fill="black" stroke="none" font-family="&quot;Open Sans&quot;, sans-serif" font-size="11pt" font-style="normal" font-weight="normal" text-decoration="normal" x="559.9518393638333" y="702.5624001088902" text-anchor="start" dominant-baseline="alphabetic" xml:space="preserve">Starting</text></g><g><g><rect fill="white" stroke="none" x="760.7818299354999" y="729.5154855538901" width="169.90056099" height="21.23576429"/></g><text fill="black" stroke="none" font-family="&quot;Open Sans&quot;, sans-serif" font-size="11pt" font-style="normal" font-weight="normal" text-decoration="normal" x="763.2321104304999" y="744.2171685238901" text-anchor="start" dominant-baseline="alphabetic" xml:space="preserve">start(countdownDuration)</text></g><g><path fill="none" stroke="black" paint-order="fill stroke markers" d=" M 584.9518393638333 745.1675366658549 L 1103.7898476138332 761.4174705850587" stroke-miterlimit="10" stroke-width="1.3612669416666667" stroke-dasharray=""/><g transform="translate(1106.5123814971666,761.5027399658549) rotate(1.7939093928577634,0,0) translate(-1106.5123814971666,-761.5027399658549)"><path fill="black" stroke="none" paint-order="stroke fill markers" d=" M 1092.8997120805 754.6964052575215 L 1106.5123814971666 761.5027399658549 L 1092.8997120805 768.3090746741882 Z"/><g transform="rotate(-1.7939093928577634,0,0)"/></g></g><path fill="white" stroke="black" paint-order="fill stroke markers" d=" M 48.68961426050001 802.3407482158548 L 1121.2140644671667 802.3407482158548 L 1121.2140644671667 839.9117158058548 L 48.68961426050001 839.9117158058548 L 48.68961426050001 802.3407482158548" stroke-miterlimit="10" stroke-width="1.3612669416666667" stroke-dasharray=""/><g><text fill="black" stroke="none" font-family="&quot;Open Sans&quot;, sans-serif" font-size="11pt" font-style="normal" font-weight="normal" text-decoration="normal" x="549.9518393638333" y="825.2100328358548" text-anchor="start" dominant-baseline="alphabetic" xml:space="preserve">New round</text></g><g><g><rect fill="white" stroke="none" x="744.2818299354999" y="852.1631182808547" width="202.90056099" height="21.23576429"/></g><text fill="black" stroke="none" font-family="&quot;Open Sans&quot;, sans-serif" font-size="11pt" font-style="normal" font-weight="normal" text-decoration="normal" x="746.7321104304999" y="866.8648012508547" text-anchor="start" dominant-baseline="alphabetic" xml:space="preserve">fill_hand(removeId, newCards)</text></g><g><path fill="none" stroke="black" paint-order="fill stroke markers" d=" M 584.9518393638333 868.3319470872125 L 1103.7898476138332 884.5818810064163" stroke-miterlimit="10" stroke-width="1.3612669416666667" stroke-dasharray=""/><g transform="translate(1106.5123814971666,884.6671503872125) rotate(1.7939093928577634,0,0) translate(-1106.5123814971666,-884.6671503872125)"><path fill="black" stroke="none" paint-order="stroke fill markers" d=" M 1092.8997120805 877.8608156788791 L 1106.5123814971666 884.6671503872125 L 1092.8997120805 891.4734850955458 Z"/><g transform="rotate(-1.7939093928577634,0,0)"/></g></g><g><g><rect fill="white" stroke="none" x="727.2818299354999" y="896.9185528622124" width="236.90056099" height="21.23576429"/></g><g><rect fill="white" stroke="none" x="727.2818299354999" y="913.2537561622124" width="195.90056099" height="21.23576429"/></g><text fill="black" stroke="none" font-family="&quot;Open Sans&quot;, sans-serif" font-size="11pt" font-style="normal" font-weight="normal" text-decoration="normal" x="729.7321104304999" y="911.6202358322124" text-anchor="start" dominant-baseline="alphabetic" xml:space="preserve">new_round(question, bossPlayerId, </text><text fill="black" stroke="none" font-family="&quot;Open Sans&quot;, sans-serif" font-size="11pt" font-style="normal" font-weight="normal" text-decoration="normal" x="729.7321104304999" y="927.9554391322124" text-anchor="start" dominant-baseline="alphabetic" xml:space="preserve">               countdownDuration)</text></g><g><path fill="none" stroke="black" paint-order="fill stroke markers" d=" M 584.9518393638333 929.9550225930963 L 1103.7898476138332 946.2049565123001" stroke-miterlimit="10" stroke-width="1.3612669416666667" stroke-dasharray=""/><g transform="translate(1106.5123814971666,946.2902258930962) rotate(1.7939093928577634,0,0) translate(-1106.5123814971666,-946.2902258930962)"><path fill="black" stroke="none" paint-order="stroke fill markers" d=" M 1092.8997120805 939.4838911847629 L 1106.5123814971666 946.2902258930962 L 1092.8997120805 953.0965606014296 Z"/><g transform="rotate(-1.7939093928577634,0,0)"/></g></g><g><g><rect fill="white" stroke="none" x="265.22128780216667" y="958.5416283680962" width="117.90056099" height="21.23576429"/></g><text fill="black" stroke="none" font-family="&quot;Open Sans&quot;, sans-serif" font-size="11pt" font-style="normal" font-weight="normal" text-decoration="normal" x="267.6715682971667" y="973.2433113380962" text-anchor="start" dominant-baseline="alphabetic" xml:space="preserve">pick_card(cardId)</text></g><g><path fill="none" stroke="black" paint-order="fill stroke markers" d=" M 63.39129723050001 973.3793631131388 L 582.2293054805 989.6292970323426" stroke-miterlimit="10" stroke-width="1.3612669416666667" stroke-dasharray=""/><g transform="translate(584.9518393638333,989.7145664131388) rotate(1.7939093928577634,0,0) translate(-584.9518393638333,-989.7145664131388)"><path fill="black" stroke="none" paint-order="stroke fill markers" d=" M 571.3391699471666 982.9082317048054 L 584.9518393638333 989.7145664131388 L 571.3391699471666 996.5209011214721 Z"/><g transform="rotate(-1.7939093928577634,0,0)"/></g></g><g><g><rect fill="white" stroke="none" x="305.22128780216667" y="1001.9659688881387" width="37.90056099" height="21.23576429"/></g><text fill="black" stroke="none" font-family="&quot;Open Sans&quot;, sans-serif" font-size="11pt" font-style="normal" font-weight="normal" text-decoration="normal" x="307.6715682971667" y="1016.6676518581387" text-anchor="start" dominant-baseline="alphabetic" xml:space="preserve">ack()</text></g><g><path fill="none" stroke="black" paint-order="fill stroke markers" d=" M 584.9518393638333 1015.5509092225317 L 66.11383111383334 1031.8008431417356" stroke-miterlimit="10" stroke-width="1.3612669416666667" stroke-dasharray="6.53408132"/><g transform="translate(63.39129723050001,1031.8861125225317) rotate(-1.7939093928577634,0,0) translate(-63.39129723050001,-1031.8861125225317)"><path fill="black" stroke="none" paint-order="stroke fill markers" d=" M 77.00396664716668 1025.0797778141985 L 63.39129723050001 1031.8861125225317 L 77.00396664716668 1038.692447230865 Z"/><g transform="rotate(1.7939093928577634,0,0)"/></g></g><g><g><rect fill="white" stroke="none" x="751.2818299354999" y="1023.7185108725317" width="188.90056099" height="21.23576429"/></g><text fill="black" stroke="none" font-family="&quot;Open Sans&quot;, sans-serif" font-size="11pt" font-style="normal" font-weight="normal" text-decoration="normal" x="753.7321104304999" y="1038.4201938425317" text-anchor="start" dominant-baseline="alphabetic" xml:space="preserve">update_state(playerId, state)</text></g><g><path fill="none" stroke="black" paint-order="fill stroke markers" d=" M 584.9518393638333 1039.6681006570257 L 1103.7898476138332 1055.9180345762297" stroke-miterlimit="10" stroke-width="1.3612669416666667" stroke-dasharray=""/><g transform="translate(1106.5123814971666,1056.0033039570258) rotate(1.7939093928577634,0,0) translate(-1106.5123814971666,-1056.0033039570258)"><path fill="black" stroke="none" paint-order="stroke fill markers" d=" M 1092.8997120805 1049.1969692486925 L 1106.5123814971666 1056.0033039570258 L 1092.8997120805 1062.809638665359 Z"/><g transform="rotate(-1.7939093928577634,0,0)"/></g></g><path fill="white" stroke="black" paint-order="fill stroke markers" d=" M 509.0825547438333 1068.2547064320258 L 646.1194410138334 1068.2547064320258 L 660.8211239838333 1082.956389402026 L 660.8211239838333 1105.8256740220259 L 509.0825547438333 1105.8256740220259 L 509.0825547438333 1068.2547064320258 M 646.1194410138334 1068.2547064320258 L 646.1194410138334 1082.956389402026 L 660.8211239838333 1082.956389402026" stroke-miterlimit="10" stroke-width="1.3612669416666667" stroke-dasharray=""/><g><text fill="black" stroke="none" font-family="&quot;Open Sans&quot;, sans-serif" font-size="11pt" font-style="normal" font-weight="normal" text-decoration="normal" x="531.9518393638333" y="1091.123991052026" text-anchor="start" dominant-baseline="alphabetic" xml:space="preserve">If no card picked</text></g><g><g><rect fill="white" stroke="none" x="257.22128780216667" y="1118.077076497026" width="133.90056099" height="21.23576429"/></g><text fill="black" stroke="none" font-family="&quot;Open Sans&quot;, sans-serif" font-size="11pt" font-style="normal" font-weight="normal" text-decoration="normal" x="259.6715682971667" y="1132.778759467026" text-anchor="start" dominant-baseline="alphabetic" xml:space="preserve">picked_card(cardId)</text></g><g><path fill="none" stroke="black" paint-order="fill stroke markers" d=" M 584.9518393638333 1133.1653701241983 L 66.11383111383334 1149.4153040434023" stroke-miterlimit="10" stroke-width="1.3612669416666667" stroke-dasharray=""/><g transform="translate(63.39129723050001,1149.5005734241984) rotate(-1.7939093928577634,0,0) translate(-63.39129723050001,-1149.5005734241984)"><path fill="black" stroke="none" paint-order="stroke fill markers" d=" M 77.00396664716668 1142.6942387158651 L 63.39129723050001 1149.5005734241984 L 77.00396664716668 1156.3069081325316 Z"/><g transform="rotate(1.7939093928577634,0,0)"/></g></g><path fill="white" stroke="black" paint-order="fill stroke markers" d=" M 48.68961426050001 1190.3385816741984 L 1121.2140644671667 1190.3385816741984 L 1121.2140644671667 1227.9095492641984 L 48.68961426050001 1227.9095492641984 L 48.68961426050001 1190.3385816741984" stroke-miterlimit="10" stroke-width="1.3612669416666667" stroke-dasharray=""/><g><text fill="black" stroke="none" font-family="&quot;Open Sans&quot;, sans-serif" font-size="11pt" font-style="normal" font-weight="normal" text-decoration="normal" x="553.4518393638333" y="1213.2078662941985" text-anchor="start" dominant-baseline="alphabetic" xml:space="preserve">Boss turn</text></g><g><g><rect fill="white" stroke="none" x="697.7818299354999" y="1240.1609517391985" width="295.90056099" height="21.23576429"/></g><text fill="black" stroke="none" font-family="&quot;Open Sans&quot;, sans-serif" font-size="11pt" font-style="normal" font-weight="normal" text-decoration="normal" x="700.2321104304999" y="1254.8626347091986" text-anchor="start" dominant-baseline="alphabetic" xml:space="preserve">boss_turn(pickedCards, countdownDuration)</text></g><g><path fill="none" stroke="black" paint-order="fill stroke markers" d=" M 584.9518393638333 1257.7861540479362 L 1103.7898476138332 1274.0360879671402" stroke-miterlimit="10" stroke-width="1.3612669416666667" stroke-dasharray=""/><g transform="translate(1106.5123814971666,1274.1213573479363) rotate(1.7939093928577634,0,0) translate(-1106.5123814971666,-1274.1213573479363)"><path fill="black" stroke="none" paint-order="stroke fill markers" d=" M 1092.8997120805 1267.315022639603 L 1106.5123814971666 1274.1213573479363 L 1092.8997120805 1280.9276920562695 Z"/><g transform="rotate(-1.7939093928577634,0,0)"/></g></g><g><g><rect fill="white" stroke="none" x="265.22128780216667" y="1286.3727598229364" width="117.90056099" height="21.23576429"/></g><text fill="black" stroke="none" font-family="&quot;Open Sans&quot;, sans-serif" font-size="11pt" font-style="normal" font-weight="normal" text-decoration="normal" x="267.6715682971667" y="1301.0744427929365" text-anchor="start" dominant-baseline="alphabetic" xml:space="preserve">pick_card(cardId)</text></g><g><path fill="none" stroke="black" paint-order="fill stroke markers" d=" M 63.39129723050001 1301.2104945679787 L 582.2293054805 1317.4604284871828" stroke-miterlimit="10" stroke-width="1.3612669416666667" stroke-dasharray=""/><g transform="translate(584.9518393638333,1317.5456978679788) rotate(1.7939093928577634,0,0) translate(-584.9518393638333,-1317.5456978679788)"><path fill="black" stroke="none" paint-order="stroke fill markers" d=" M 571.3391699471666 1310.7393631596456 L 584.9518393638333 1317.5456978679788 L 571.3391699471666 1324.352032576312 Z"/><g transform="rotate(-1.7939093928577634,0,0)"/></g></g><g><g><rect fill="white" stroke="none" x="305.22128780216667" y="1329.7971003429789" width="37.90056099" height="21.23576429"/></g><text fill="black" stroke="none" font-family="&quot;Open Sans&quot;, sans-serif" font-size="11pt" font-style="normal" font-weight="normal" text-decoration="normal" x="307.6715682971667" y="1344.498783312979" text-anchor="start" dominant-baseline="alphabetic" xml:space="preserve">ack()</text></g><g><path fill="none" stroke="black" paint-order="fill stroke markers" d=" M 584.9518393638333 1343.3820406773716 L 66.11383111383334 1359.6319745965757" stroke-miterlimit="10" stroke-width="1.3612669416666667" stroke-dasharray="6.53408132"/><g transform="translate(63.39129723050001,1359.7172439773717) rotate(-1.7939093928577634,0,0) translate(-63.39129723050001,-1359.7172439773717)"><path fill="black" stroke="none" paint-order="stroke fill markers" d=" M 77.00396664716668 1352.9109092690385 L 63.39129723050001 1359.7172439773717 L 77.00396664716668 1366.523578685705 Z"/><g transform="rotate(1.7939093928577634,0,0)"/></g></g><path fill="white" stroke="black" paint-order="fill stroke markers" d=" M 48.68961426050001 1400.5552522273717 L 1121.2140644671667 1400.5552522273717 L 1121.2140644671667 1438.1262198173717 L 48.68961426050001 1438.1262198173717 L 48.68961426050001 1400.5552522273717" stroke-miterlimit="10" stroke-width="1.3612669416666667" stroke-dasharray=""/><g><text fill="black" stroke="none" font-family="&quot;Open Sans&quot;, sans-serif" font-size="11pt" font-style="normal" font-weight="normal" text-decoration="normal" x="563.9518393638333" y="1423.4245368473719" text-anchor="start" dominant-baseline="alphabetic" xml:space="preserve">Result</text></g><g><g><rect fill="white" stroke="none" x="732.2818299354999" y="1450.3776222923718" width="226.90056099" height="21.23576429"/></g><text fill="black" stroke="none" font-family="&quot;Open Sans&quot;, sans-serif" font-size="11pt" font-style="normal" font-weight="normal" text-decoration="normal" x="734.7321104304999" y="1465.079305262372" text-anchor="start" dominant-baseline="alphabetic" xml:space="preserve">result(winner, countdownDuration)</text></g><g><path fill="none" stroke="black" paint-order="fill stroke markers" d=" M 584.9518393638333 1466.9222894219242 L 1103.7898476138332 1483.1722233411283" stroke-miterlimit="10" stroke-width="1.3612669416666667" stroke-dasharray=""/><g transform="translate(1106.5123814971666,1483.2574927219243) rotate(1.7939093928577634,0,0) translate(-1106.5123814971666,-1483.2574927219243)"><path fill="black" stroke="none" paint-order="stroke fill markers" d=" M 1092.8997120805 1476.451158013591 L 1106.5123814971666 1483.2574927219243 L 1092.8997120805 1490.0638274302576 Z"/><g transform="rotate(-1.7939093928577634,0,0)"/></g></g><path fill="white" stroke="black" paint-order="fill stroke markers" d=" M 48.68961426050001 1524.0955009719244 L 1121.2140644671667 1524.0955009719244 L 1121.2140644671667 1561.6664685619244 L 48.68961426050001 1561.6664685619244 L 48.68961426050001 1524.0955009719244" stroke-miterlimit="10" stroke-width="1.3612669416666667" stroke-dasharray=""/><g><text fill="black" stroke="none" font-family="&quot;Open Sans&quot;, sans-serif" font-size="11pt" font-style="normal" font-weight="normal" text-decoration="normal" x="560.9518393638333" y="1546.9647855919245" text-anchor="start" dominant-baseline="alphabetic" xml:space="preserve">Waiting</text></g><g><g><rect fill="white" stroke="none" x="815.7818299354999" y="1573.9178710369242" width="59.90056099" height="21.23576429"/></g><text fill="black" stroke="none" font-family="&quot;Open Sans&quot;, sans-serif" font-size="11pt" font-style="normal" font-weight="normal" text-decoration="normal" x="818.2321104304999" y="1588.6195540069243" text-anchor="start" dominant-baseline="alphabetic" xml:space="preserve">waiting()</text></g><g><path fill="none" stroke="black" paint-order="fill stroke markers" d=" M 584.9518393638333 1587.8473298342458 L 1103.7898476138332 1604.0972637534499" stroke-miterlimit="10" stroke-width="1.3612669416666667" stroke-dasharray=""/><g transform="translate(1106.5123814971666,1604.182533134246) rotate(1.7939093928577634,0,0) translate(-1106.5123814971666,-1604.182533134246)"><path fill="black" stroke="none" paint-order="stroke fill markers" d=" M 1092.8997120805 1597.3761984259127 L 1106.5123814971666 1604.182533134246 L 1092.8997120805 1610.988867842579 Z"/><g transform="rotate(-1.7939093928577634,0,0)"/></g></g><path fill="white" stroke="black" paint-order="fill stroke markers" d=" M 48.68961426050001 1645.020541384246 L 1121.2140644671667 1645.020541384246 L 1121.2140644671667 1682.591508974246 L 48.68961426050001 1682.591508974246 L 48.68961426050001 1645.020541384246" stroke-miterlimit="10" stroke-width="1.3612669416666667" stroke-dasharray=""/><g><text fill="black" stroke="none" font-family="&quot;Open Sans&quot;, sans-serif" font-size="11pt" font-style="normal" font-weight="normal" text-decoration="normal" x="538.4518393638333" y="1667.889826004246" text-anchor="start" dominant-baseline="alphabetic" xml:space="preserve">Disconnection</text></g><g><g><rect fill="white" stroke="none" x="268.22128780216667" y="1694.842911449246" width="111.90056099" height="21.23576429"/></g><text fill="black" stroke="none" font-family="&quot;Open Sans&quot;, sans-serif" font-size="11pt" font-style="normal" font-weight="normal" text-decoration="normal" x="270.6715682971667" y="1709.544594419246" text-anchor="start" dominant-baseline="alphabetic" xml:space="preserve">&lt;&lt;disconnect&gt;&gt;</text></g><g><path fill="none" stroke="grey" paint-order="fill stroke markers" d=" M 63.39129723050001 1716.078675739246 L 582.2293054805 1716.078675739246" stroke-miterlimit="10" stroke-width="1.3612669416666667" stroke-dasharray=""/><g transform="translate(584.9518393638333,1716.078675739246) translate(-584.9518393638333,-1716.078675739246)"><path fill="none" stroke="grey" paint-order="fill stroke markers" d=" M 571.3391699471666 1709.2723410309127 L 583.5905724221666 1716.078675739246 L 571.3391699471666 1722.8850104475791" stroke-miterlimit="10" stroke-width="1.3612669416666667"/></g></g><path fill="white" stroke="black" paint-order="fill stroke markers" d=" M 510.0825547438333 1728.330078214246 L 645.1194410138334 1728.330078214246 L 659.8211239838333 1743.031761184246 L 659.8211239838333 1782.2362491042459 L 510.0825547438333 1782.2362491042459 L 510.0825547438333 1728.330078214246 M 645.1194410138334 1728.330078214246 L 645.1194410138334 1743.031761184246 L 659.8211239838333 1743.031761184246" stroke-miterlimit="10" stroke-width="1.3612669416666667" stroke-dasharray=""/><g><text fill="black" stroke="none" font-family="&quot;Open Sans&quot;, sans-serif" font-size="11pt" font-style="normal" font-weight="normal" text-decoration="normal" x="532.9518393638333" y="1751.1993628342461" text-anchor="start" dominant-baseline="alphabetic" xml:space="preserve">If the player is in</text><text fill="black" stroke="none" font-family="&quot;Open Sans&quot;, sans-serif" font-size="11pt" font-style="normal" font-weight="normal" text-decoration="normal" x="532.9518393638333" y="1767.5345661342462" text-anchor="start" dominant-baseline="alphabetic" xml:space="preserve">a running game</text></g><g><g><rect fill="white" stroke="none" x="720.7818299354999" y="1794.487651579246" width="249.90056099" height="21.23576429"/></g><text fill="black" stroke="none" font-family="&quot;Open Sans&quot;, sans-serif" font-size="11pt" font-style="normal" font-weight="normal" text-decoration="normal" x="723.2321104304999" y="1809.189334549246" text-anchor="start" dominant-baseline="alphabetic" xml:space="preserve">update_state(playerId, 'disconnected')</text></g><g><path fill="none" stroke="black" paint-order="fill stroke markers" d=" M 584.9518393638333 1811.39249710186 L 1103.7898476138332 1827.642431021064" stroke-miterlimit="10" stroke-width="1.3612669416666667" stroke-dasharray=""/><g transform="translate(1106.5123814971666,1827.7277004018601) rotate(1.7939093928577634,0,0) translate(-1106.5123814971666,-1827.7277004018601)"><path fill="black" stroke="none" paint-order="stroke fill markers" d=" M 1092.8997120805 1820.921365693527 L 1106.5123814971666 1827.7277004018601 L 1092.8997120805 1834.5340351101934 Z"/><g transform="rotate(-1.7939093928577634,0,0)"/></g></g><path fill="white" stroke="black" paint-order="fill stroke markers" d=" M 483.5825547438333 1839.9791028768602 L 671.6194410138334 1839.9791028768602 L 686.3211239838333 1854.6807858468603 L 686.3211239838333 1877.5500704668602 L 483.5825547438333 1877.5500704668602 L 483.5825547438333 1839.9791028768602 M 671.6194410138334 1839.9791028768602 L 671.6194410138334 1854.6807858468603 L 686.3211239838333 1854.6807858468603" stroke-miterlimit="10" stroke-width="1.3612669416666667" stroke-dasharray=""/><g><text fill="black" stroke="none" font-family="&quot;Open Sans&quot;, sans-serif" font-size="11pt" font-style="normal" font-weight="normal" text-decoration="normal" x="506.4518393638333" y="1862.8483874968604" text-anchor="start" dominant-baseline="alphabetic" xml:space="preserve">If the player is in a game</text></g><g><g><rect fill="white" stroke="none" x="780.2818299354999" y="1889.80147294186" width="130.90056099" height="21.23576429"/></g><text fill="black" stroke="none" font-family="&quot;Open Sans&quot;, sans-serif" font-size="11pt" font-style="normal" font-weight="normal" text-decoration="normal" x="782.7321104304999" y="1904.5031559118602" text-anchor="start" dominant-baseline="alphabetic" xml:space="preserve">player_left(playerId)</text></g><g><path fill="none" stroke="black" paint-order="fill stroke markers" d=" M 584.9518393638333 1904.8427867786331 L 1103.7898476138332 1921.0927206978372" stroke-miterlimit="10" stroke-width="1.3612669416666667" stroke-dasharray=""/><g transform="translate(1106.5123814971666,1921.1779900786332) rotate(1.7939093928577634,0,0) translate(-1106.5123814971666,-1921.1779900786332)"><path fill="black" stroke="none" paint-order="stroke fill markers" d=" M 1092.8997120805 1914.3716553703 L 1106.5123814971666 1921.1779900786332 L 1092.8997120805 1927.9843247869665 Z"/><g transform="rotate(-1.7939093928577634,0,0)"/></g></g></g></g></svg>